<?xml version="1.0" encoding="UTF-8"?>
<svg xmlns="http://www.w3.org/2000/svg" xmlns:xlink="http://www.w3.org/1999/xlink" width="24pt" height="24pt" viewBox="0 0 24 24" version="1.1">
<g id="surface1">
<path style=" stroke:none;fill-rule:evenodd;fill:rgb(0%,0%,0%);fill-opacity:1;" d="M 4.992188 4.992188 L 6.695312 6.695312 C 3.933594 8.933594 2.882812 12.671875 4.074219 16.023438 C 5.269531 19.375 8.445312 21.609375 12 21.601562 C 15.550781 21.59375 18.710938 19.359375 19.902344 16.015625 C 21.09375 12.671875 20.050781 8.941406 17.304688 6.695312 L 19.007812 4.992188 C 22.449219 7.929688 23.691406 12.699219 22.125 16.941406 C 20.5625 21.1875 16.515625 24.003906 11.992188 24.003906 C 7.472656 24.003906 3.425781 21.1875 1.863281 16.941406 C 0.296875 12.699219 1.539062 7.929688 4.980469 4.992188 Z M 10.800781 0 L 13.199219 0 L 13.199219 9.601562 L 10.800781 9.601562 Z M 10.800781 0 "/>
</g>
</svg>
